# xmcd
#
# Track frame offsets: 
#        150
#        18593
#        41616
#        61198
#        81516
#        102948
#        119383
#        141700
#        158110
#        177673
#        197550
#        218950
#        239533
#        257870
#        277524
#        298251
#
# Disc length: 4235 seconds
#
# Revision: 1
# Processed by: cddbd v1.5.2PL0 Copyright (c) Steve Scherf et al.
# Submitted via: ExactAudioCopy v1.0b6
#
DISCID=f8108910
DTITLE=Varios Artistas - Los Grandes Del Merengue [CD1)
DYEAR=2000
DGENRE=Merengue
TTITLE0=Juan Luis Guerra - La bilirrubina
TTITLE1=Sergio Vargas - La quiero a morir
TTITLE2=Wilfrido Vargas - Volvere
TTITLE3=The New York Band - Colé
TTITLE4=Mickey Taveras - La ventanita
TTITLE5=Juan Luis Guerra - Ella dice
TTITLE6=Alex Bueno - Que cara mas bonita
TTITLE7=Rubby Pérez - Saca la mano Antonio
TTITLE8=Wilfrido Vargas - Comejen
TTITLE9=Ramón Orlando - Te compro tu novia
TTITLE10=Sergio Vargas - Si algun dia la ves
TTITLE11=Los Hermanos Rosario - Mujeres calientes
TTITLE12=Las Chicas Del Can - Las pequeñas cosas
TTITLE13=Vickiana - Que bello
TTITLE14=Los Hermanos Rosario - Comprendeme
TTITLE15=Las Chicas Del Can - La media María
EXTD=YEAR: 2000
EXTT0=
EXTT1=
EXTT2=
EXTT3=
EXTT4=
EXTT5=
EXTT6=
EXTT7=
EXTT8=
EXTT9=
EXTT10=
EXTT11=
EXTT12=
EXTT13=
EXTT14=
EXTT15=
PLAYORDER=
